<?xml version="1.0" encoding="UTF-8"?>
<svg xmlns="http://www.w3.org/2000/svg" id="Layer_1" viewBox="0 0 279 282">
  <title>AMag_Logo_Vert</title>
  <path d="M26,247.06H21.57v1h10v-1H27.09V217.45L37.56,248H38.9l10.51-30.24v29.28h-4.9v1H59v-1H54.55V217H59v-1H48.69l-8.26,23.62L32.56,216h-11v1H26v30.1h0Zm52.8-9.36,3.46,9.36H77.64v1h14.3v-1h-3.7L76.82,216H75.28l-12,31.06H60.79v1h8.54v-1H64.77l3.41-9.36H78.79Zm-0.34-1H68.56l4.94-13.3,4.94,13.3h0ZM117.18,216h-0.72l-1.78,1.92a15,15,0,0,0-7.78-2.4c-8.4,0-15.41,7.49-15.41,16.51s6.72,16.46,14.93,16.46c4.27,0,8.83-2.16,11-5.23A9.5,9.5,0,0,0,119,237.8h3.36v-1H107.49v1h5.28a15.76,15.76,0,0,1-.72,5.52,6.55,6.55,0,0,1-6.38,4.08c-3.07,0-5.66-1.44-6.72-3.74-1-2-1.34-5.52-1.34-11.66,0-6.53.67-10.7,2-12.48a8.24,8.24,0,0,1,6.67-2.88,9.76,9.76,0,0,1,6.34,2.06c2.06,1.63,3.17,3.5,4,6.86h0.82L117.18,216h0ZM139,237.7l3.46,9.36h-4.61v1h14.3v-1h-3.7L137.06,216h-1.54l-12,31.06H121v1h8.54v-1H125l3.41-9.36H139Zm-0.34-1H128.8l4.94-13.3,4.94,13.3h0ZM154.1,248h25.1l1-10.08h-0.72c-1.2,4.51-2,6.19-3.84,7.73-1.39,1.2-2.26,1.39-6.82,1.39h-9L180.74,216H156.3l-1,9.79H156c1.58-5.47,2.93-7.54,5.47-8.45,1.06-.38,1.06-0.38,4-0.38h8.16L154.1,245.91V248h0Zm35.52-1H185.2v1h13.92v-1h-4.37V217h4.37v-1H185.2v1h4.42v30.1h0Zm17.9,0H203.1v1h10v-1h-4.51V217.88L230.42,248h1.1V217h4.37v-1h-10v1h4.56v21.65c-1.39-2.16-2.11-3.12-4-5.71-0.67-.91-1.39-1.87-2.06-2.83L214.14,216h-11v1h4.42v30.1h0Zm35.61,0h-4.42v1h26.21l1-10h-0.72c-1.63,5.18-2.54,6.82-4.51,8.11-1.25.82-1.73,0.91-5.33,0.91h-7.1V232.28H250c3.26,0,4.7.48,5.47,1.92,0.58,0.91.67,1.44,0.91,4.42h0.72v-13.2h-0.72c-0.1,5.23-1.2,6-8.16,6V217h4.32a33.44,33.44,0,0,1,4,.1,7.06,7.06,0,0,1,4.66,2.26c1.1,1.25,1.78,2.74,2.45,5.47h0.72L264.06,216H238.72v1h4.42v30.1h0Z"></path>
  <path d="M263.92,90.82q0,6.38-44.29,58.86-35.79,43.08-56.42,43.09a28.34,28.34,0,0,1-22.75-10.45q-8.8-10.45-8.8-26.21,0-16.36,9.69-35.45Q111.07,163.09,95,177.92T63.8,192.77q-16.06,0-27-13.78T25.93,144.29q0-58.17,82.1-103,36.06-20,58.17-20Q185,21.29,185,39.47a52.28,52.28,0,0,1-2.43,13.63L198,23.71a71.76,71.76,0,0,0,16.05,2.12,137.91,137.91,0,0,0,21.21-2.12l-53.62,88.77q-27.87,46.66-27.87,61.5,0,14.25,11.84,14.24,12.13,0,38.83-27.76T258.76,92c1.21-2,2.32-3,3.34-3a1.61,1.61,0,0,1,1.82,1.82h0ZM180.45,40.68q0-14.84-13.63-14.84-27.88,0-73.17,54.53t-45.3,88.16q0,19.7,17.57,19.69,20.91,0,72.41-69.38,42.11-57,42.11-78.17h0Z"></path>
  <path d="M108.85,149.59c-2,2.64-6,6.67-5.87,5.53l-0.74.23c2-2,9.61-10.91,6.62-5.76h0Z"></path>
  <path d="M111.57,150.87c-2,2-.74.25-0.6-0.28l2.61-3c1-.72-1,2-2,3.27h0Z"></path>
  <path d="M115.11,156.15l0.9-.8a38.4,38.4,0,0,0-2.84,2.94c-0.3-.14.9-2,2.52-3.69-0.14.54-1.62,2.28-.58,1.55h0Z"></path>
  <path d="M66.64,186.5c-0.35.49,0.3,1.12,1.83,1.47a14.45,14.45,0,0,0,6.35-.36c-0.35.76-.73,1.51-1.16,2.26-2,.34-5.06,1.29-8.56,1.15a22.44,22.44,0,0,1-10-2.2c-1.23-.5.08,0.43,1,1,0.47,0.27.83,0.48,0.67,0.5a7.78,7.78,0,0,1-2.47-.89c-0.57-.6.11-0.65-1-1.57a36.73,36.73,0,0,1-4.63-3.2,10.74,10.74,0,0,1-2.19-3,20.56,20.56,0,0,1-2.06-6.85,34.2,34.2,0,0,1,.37-4.12c-0.41-10.12,1.76-20,5-29.26a116.62,116.62,0,0,1,12.71-25.31c0.93-3.22,6.24-10.89,9.09-15.74l0.47,0.17c1.19-3.11,5.25-6.92,7.59-10.13l2.55-2.54c1.44-.61-5.89,8.32-3,6.5,5.11-5.65,7-10.82,11.76-15.31,4.2-4.73,3.32-4.52,5.67-7.67,0.29-1.08-1.19.65-1.35,0a57.68,57.68,0,0,1,10.31-10.06,80.61,80.61,0,0,0,9.89-8.65c0-.62,6.64-8.29-0.58-2.25l-2.82,3.49-2.52,1.78c2.37-2.5,7-6.88,6.08-6.77,2.27-.93,6.34-5.27,9.39-8.21s4.85-4.58,1.94-.46c-4.86,3.45-6.06,4.72-8.37,7.85a124.11,124.11,0,0,1,29.9-20.42c0.88-.71,1.79-1.42,2.73-2.09,0.53,0.66,5.83-1,11.29-1.51,2.3-.53,5.41-0.4,4.68-0.8,0.55-.29-4.63-0.37-8.51.47-1.95.35-3.59,0.76-4.2,0.76s-0.22-.44,2.12-1.48a36.57,36.57,0,0,1,10-1.14,18.69,18.69,0,0,1,10.27,3,13.71,13.71,0,0,1,5.4,8.38,21.09,21.09,0,0,1,.2,7.36A22.43,22.43,0,0,0,181,32.49a10.39,10.39,0,0,0-6.36-6,17.63,17.63,0,0,0-7.82-1.31A35.85,35.85,0,0,0,159,26.33a57.75,57.75,0,0,0-14.37,6.13,106.28,106.28,0,0,0-23.55,19.12c-0.92.07-4.78,3.5-4.07,2-1.59,1-4.8,4.83-6.3,5.26-9.94,11.44-21.6,24.74-29.9,35.6,3.41-2.19-4.22,7.14-5.86,10.64-2.57,2.56-5.76,7.85-8.1,11.71-0.06.55-1.43,3-.73,2.62,1.57-3,2.49-3.81,4.46-6.61,0.13,1.74-4,6.14-6.55,10.56l0.83-2.59C60.55,128,54.38,136.4,52.71,144.06c1.05-1.94,2.19-3.82,3.35-5.67-1.67,4.43-3.71,9.29-5.1,14.07s-2.15,9.44-1.72,12.94a86.66,86.66,0,0,1,1.68-10.5c0.78-3.28,1.73-5.67,2.35-5.38,0.5,0.54-1.41,7.42-2.13,10.72-1.71,7.05-1.36,14.09,1.44,19s8,6.49,14.07,7.28h0Z"></path>
  <path d="M53.85,177.4a42.07,42.07,0,0,1-1.55-5.1,23.69,23.69,0,0,0-.84-2.54c-0.44-1.36-1.09-2.77-.3-8.47,0.52,1.5,1.85-3.89,2.92-7.53,0.5-3.67,2.24-7.81,3.44-10.86,1-2,1.64-1.39.12,2.66A43.63,43.63,0,0,0,53.1,162a52.16,52.16,0,0,0,.75,15.37h0Z"></path>
  <path d="M57.26,186.55c-2.83-1.32-3.18-2.5-3.58-3.32a25,25,0,0,0-2.21-4,10.35,10.35,0,0,1,1.87,2.44A9.12,9.12,0,0,0,57,185.09a12.24,12.24,0,0,1-2.76-1.31,12.94,12.94,0,0,0,3,2.77h0Z"></path>
  <path d="M56.89,141.21c1.3-3.65,5.7-11.56,6.75-11.3,0.34-.47.31,0.61,1.17-1.38-2,2.81-6.28,11.76-7.92,12.67h0Z"></path>
  <path d="M48.07,156.71a47.15,47.15,0,0,1,1.77-7.82,70.32,70.32,0,0,1-1.77,7.82h0Z"></path>
  <path d="M57.28,135.82c-1,.39,1.24-3.11,1.76-4.1l1.33-2a32.55,32.55,0,0,1-3.09,6.06h0Z"></path>
  <path d="M76.07,107.77c3.47-4.5-2.59,5.38,1.34-.1l-2.11,3.26-1.72.57,2.49-3.72h0Z"></path>
  <path d="M81.92,101.28a22.93,22.93,0,0,1,3.58-5l-0.62,1.5c-0.51.95-1.65,1.67-3,3.48h0Z"></path>
  <path d="M75.53,105.86c1.37-2.41,1.59-1.75,2.8-3-0.36,1-4.31,5.38-2.8,3h0Z"></path>
  <path d="M86.9,79.71c-1,2.59-4.71,6.38-7.58,10.6,2.89-4.2,3.84-6.19,7.58-10.6h0Z"></path>
  <path d="M133.57,117.14a24.71,24.71,0,0,0,3.8-5.5l-1,.8-2.83,4.71h0Z"></path>
  <path d="M112.37,143.49c-0.79,2.6,1.61-1,5.18-4.21,4.09-4.72,7.43-10.38,11.23-15.29l1.81-3.36c-4.73,5.73-13,15.78-18.21,22.86h0Z"></path>
  <path d="M113.36,150.5c3.37-3.25,6.59-8.4,8.69-11.05-3.65,4.37-8.39,10-11,13-0.14.54,1.48-1.11,2.36-1.91h0Z"></path>
  <path d="M165.79,67c-3.52,6.84-9.85,15.6-13.49,23.48,2.36-3.21,2.7-3.1,6.17-8.25-1.28,4.69-5.29,8-8.39,12.63,2.8-3.63,0,1.69-2.19,5-4.5,5.9-11.26,15.55-17.36,23.64-2.19,3.82-11.68,14.56-9.35,13.77-3.77,4.89-5.13,4.89-8.28,8.21-3.75,5.73-8.33,9.86-13,13.9a131.93,131.93,0,0,0-14.28,13.38c0.15-1.14-5.13,3.43-7.36,4.79a41.69,41.69,0,0,1-9.39,5,29.11,29.11,0,0,1-3.25.86c-0.86.2-1.15,0.44-.47,0.85a5.8,5.8,0,0,0,3,.12A15.74,15.74,0,0,0,72,182.94c2.76-1.37,5.63-3.4,8.43-4.81,4.77-2.61,2.69-.73-0.67,1.82-1.69,1.25-3.72,2.56-5.34,3.52s-2.82,1.62-2.75,2c1.29-.82,2.69.08,6.67-2.84-4.29,2.91-3.29,2.62-1.53,2.18s4-1.46,1.86.36c5.5-2.93,7.71-4.69,9.52-5.69s3-1.55,6-3c5.26-5.29,2.86-4.76,3.92-6.69,5-6,10.27-9.47,14.44-14.8-1.73,5.28,8.66-7.49,13.5-13.8,6.45-8,.7-3.85,7.47-12.33,4.1-3.67-5.63,9.54-.42,4.55l2.7-4.23c1.28-3,2-5.7,3.76-9.11,1.34-1.83,3.33-4.59,3.64-4.47-2.35,3.79-.89,3.18,2.23-0.34a20.83,20.83,0,0,0,1.6-3.49c-7.19,6.11,5.55-7.87,8-14,4.44-8.32,6.26-10.05,8.22-11.7s4-3.17,8.2-11.55c-2.27,2-.94-0.78,1.08-4.85s4.61-9.53,5.34-12.53c1.92-4.82,2.94-6.46,4.4-10,0-.76.22-2.17,0.26-3.5a8.56,8.56,0,0,0-.26-2.9c-1.3,1.58-2.86,5.09-5.52,9.55s-6.27,10-10.71,16.09a1.79,1.79,0,0,0-.21.73h0Z"></path>
  <path d="M231.85,37.21l5.62-9.39,3-5,1.5-2.41,0.73-1.17a3.61,3.61,0,0,0,.55-1c-6.51.91-11.34,1.4-9,.72H231.7l13.66-2.1c-2.21,3.81-5,8.26-7.42,12.21l-3.48,5.62-1.53,2.44-1,1.62c-1,1.47-1.64,2.35-1.74,2.25a2,2,0,0,1,.3-0.94L231,39l0.36-.74,0.54-1h0Z"></path>
  <path d="M228.26,37.56c0.91-1.39,1.62-2.48,2-2.92s0.36-.4.22-0.06-0.45.95-.77,1.58-0.51,1.05-.63,1.37l-5,8.23c-1.79,2.35,2.25-4.68,4.26-8.19h0Z"></path>
  <path d="M224.17,32.47l-0.26.28-0.12.13-0.06.07-0.2.3L224.47,32c0.27-.39.54-0.79,0.72-1.1,0.27-.14.35,0.05,0.14,0.59a7.52,7.52,0,0,1-.47,1l-0.35.59-0.82,1.29c0.05-.15.14-0.35,0.26-0.58s0.32-.62.3-0.63l0.2-.55c0.11-.32.09-0.45-0.28-0.14h0Z"></path>
  <path d="M151.79,21.33c-0.93.73,1,.83,4.5,0.83s8.82-.11,14.19,1.05a29.61,29.61,0,0,0-4.14,1.34c-4.08-.44-10.43.2-17.18,2a138.58,138.58,0,0,0-20,7.4c-4.6,2.34,11.66-4.44-.33,1.12-1.46.41-.64-0.43-3.26,0.61a68.09,68.09,0,0,0-9,5.53c-2.6,1.79-7,4.19-18.17,10.65q-3.89,1.9-7.74,3.91C72,67.93,54.39,83,42.87,101.74a83.4,83.4,0,0,0-11.45,29.88c-1.7,10.39-1.51,21.11,1.24,30.61,1.44,3.23,4.09,9.53,9,15a32.33,32.33,0,0,0,8.25,6.88,24.34,24.34,0,0,0,8.92,3L59,187.63a41.78,41.78,0,0,0,12.2-.89A38.09,38.09,0,0,0,84,180.81a68,68,0,0,0,6.59-4.6c1.43-.76-2.81,3.33-7.12,6.29s-8.56,4.88-5,4c7.93-3.59,13.45-9,18.3-14.21s9.22-10.78,14.47-16.51c2.43-2.89,4.12-5,5.41-6.71l2-2.71,1.87-2.58,8.4-12c2.54-4.28-2.77,3-1.73.6l6.93-9.56a10.86,10.86,0,0,0,5.64-1.23,11.26,11.26,0,0,0,1.67-1.13c-0.17.43-.56,1.14-0.8,1.77a27.94,27.94,0,0,0-1.52,5.05A20,20,0,0,0,139,135a54.78,54.78,0,0,0-4.2,13.79c-0.12,1-.3,2-0.37,3l-0.11,1.51-0.06.77v0.57a44.31,44.31,0,0,0,.09,4.59c0.11,0.25.34,1.86,0.78,3.74a32.36,32.36,0,0,0,1.74,5.4c0.61,1.41,1.13,2.1,1,1.31s-0.83-3.08-1.32-8.09a46.13,46.13,0,0,1-.55-4.82c-0.07-.8-0.07-1.66-0.1-2.49,0.07-1.33.07-2.82,0.23-4.24,0.2-1,.36-2,0.6-3.11l0.85-3.39c0.36-1.22.84-2.6,1.26-3.92l0.33-1c0.13-.36.35-0.86,0.52-1.28l1.11-2.68-0.88,2.23a20.31,20.31,0,0,0-.76,2.12l-1.11,3.74a63.57,63.57,0,0,0-1.31,6.84c-0.2,1.13-.23,2.19-0.32,3.28l-0.1,1.5v0.89c0,1.2,0,2.29.08,3.34,0.25,4.18,1.14,7,1.23,6.2a22.61,22.61,0,0,0,3.56,10.72,25.65,25.65,0,0,0,10,9.43,28.19,28.19,0,0,0,7.87,2.4c0.51,0.1.46,0.21-.33,0.27a18.94,18.94,0,0,1-4.72-.42,27,27,0,0,1-10.4-7.86,41.54,41.54,0,0,1-5.77-8.65c2.5,6.62,7.08,12.42,12.71,15.6a25,25,0,0,0,9.2,3,22.44,22.44,0,0,0,9.4-.58c6.17-1.77,11.94-5.4,17.18-9.33a138.51,138.51,0,0,0,14.6-13q2.36-3,4.63-6c0.48,0.08,3-2.1,6.29-5.51s7.5-8.13,11.57-12.83c3.3-4.22,7.68-9.53,6.34-8.51,0.57-1.08-6.62,7.64-12.5,14.29s-10.22,11.11-3.53,2.32c9.46-10.93,19.12-22.23,27.64-32.75,4.26-5.26,8.25-10.31,11.74-15,1.74-2.35,3.37-4.63,4.8-6.79,0.71-1.08,1.37-2.14,1.94-3.15,0.28-.51.54-1,0.75-1.46a3.21,3.21,0,0,1,.46-1c-0.14.14-.26,1-0.56,1.62s-0.61,1.37-1,2c-0.7,1.35-1.47,2.66-2.24,3.94-1.56,2.55-3.17,5-4.81,7.43l-10.64,15.83c-7.21,9.76-15,19.45-23,29.07a234,234,0,0,1-25.81,27.33,88.88,88.88,0,0,1-15.15,11c-5.4,3-11.5,5.12-17.68,4.44a28.27,28.27,0,0,1-16.68-6.81A36.58,36.58,0,0,1,133.42,171c0-.92-0.89-4.42-1.1-7.29s-0.1-5,.31-3.22l0-3.65c0-.73,0-1.51,0-2.31s0.12-1.86.17-2.81a42.69,42.69,0,0,1,3-12.47,19,19,0,0,1,.55-2.41c0-4.36,1.5-8.51,3.37-12.82,0.33-.7.64-1.42,1-2.12l0.53-1.07a0.92,0.92,0,0,0,.09-0.2l-0.18.24-0.37.48-3,3.85c-2.07,2.57-4.22,5.16-6.59,7.61l-6.61,8.9L121.28,146l-3.21,4.11c-3.85,4.88-7.76,9.65-11.73,14.19C98.43,173.4,90.2,181.73,81,186.67c2.13-.79,2.18-0.56.9,0.37a32.65,32.65,0,0,1-7.35,3.67,33.27,33.27,0,0,1-11.46,2,38.36,38.36,0,0,1-9.64-1.29A38.55,38.55,0,0,1,40,182.35a47.84,47.84,0,0,1-9.85-15,30.77,30.77,0,0,1-1.73-3.89c-0.57-1.55-1-2.77-1-1.92a71.69,71.69,0,0,0,3.39,9.11,45.29,45.29,0,0,0,5,8.56c-1.48-1-4.27-4.8-6.43-10.13a61.9,61.9,0,0,1-4-18.31,63,63,0,0,0,1.45,6.38c-1.9-10.19-.94-21.72,2-32.24s8-20,12.76-27.92A95.87,95.87,0,0,0,33,110.2C37.55,99.53,45.44,89,53.93,80.44s17.4-15.7,23.93-21.2A165.58,165.58,0,0,0,57.63,75.93c-6,5.74-10.08,10.56-10.47,9.94,0-.57,2.93-4.35,6.92-8.44A122.1,122.1,0,0,1,66.49,66.35a374,374,0,0,1,42-27.77,192,192,0,0,1,20.75-10.49,97.58,97.58,0,0,1,22.55-6.77h0Z"></path>
  <path d="M104.6,38.52C91.32,46,88.48,48.75,85.63,51.08c-1.41,1.2-2.78,2.38-5.29,4.31S74.17,60,68.44,64.54c2.42-2.89-9.26,5.52-16.12,12.72-3.17,3.57-6.63,7.53-9.78,11.58a107.31,107.31,0,0,0-8.1,11.88c-1.51,2.48-2.29,3.49-2.09,2.57s1.42-3.76,4.56-8.55A183.87,183.87,0,0,1,68.14,62.19,189.19,189.19,0,0,1,104.6,38.52h0Z"></path>
  <path d="M129.85,30.43a88.8,88.8,0,0,1-11.31,4.49c-2.21.73-4.43,1.42-10.82,5.18a36,36,0,0,1,7.05-4.17l12.58-5.73q-3.53,1.84-7,3.8,4.7-1.9,9.47-3.58h0Z"></path>
  <path d="M33.85,104.29a106.24,106.24,0,0,0-7.65,18.52c-2.07,6.74-2.92,12.66-3.44,12.95-0.2,1.47-.54-1.1-0.73,4.54a84.68,84.68,0,0,1,4.1-20.7c2.55-7.63,6.29-14,7.73-15.32h0Z"></path>
  <path d="M63.45,73.78a184.59,184.59,0,0,0-13,13.58,84.42,84.42,0,0,1,13-13.58h0Z"></path>
  <path d="M30.3,116.6c0.66-.75,0,1.16-0.85,3.63s-1.73,5.53-2,6.87q-0.77,2.76-1.33,5.59a54.47,54.47,0,0,1,4.19-16.1h0Z"></path>
  <path d="M48.84,192.2c3.42,1.61,4.34,1.8,3.82,1.8a21.86,21.86,0,0,1-4-1.24c-1.69-.67-3.23-1.48-3.37-1.48s1,1,5.27,2.79a36,36,0,0,1-9.24-5.2,38.91,38.91,0,0,1-2.15-3.33,36.85,36.85,0,0,0,9.68,6.67h0Z"></path>
  <path d="M71.51,195.58a62.45,62.45,0,0,0,14.84-6.45q-1.62,1.26-3.35,2.43c-2.45,1.41-5.62,2.63-11.5,4h0Z"></path>
  <path d="M52.45,192c3.33,1,4.78,1.22,5.9,1.56a19.46,19.46,0,0,0,4.19.84,25.17,25.17,0,0,1-8.74-1.51c-3-1.13-4.63-2.15-1.35-.89h0Z"></path>
  <path d="M104.52,159.56c-3.34,5.18-11.79,14.56-20.84,21.1A72.6,72.6,0,0,0,94,171.28c3-3.17,6-6.61,10.47-11.71h0Z"></path>
  <path d="M181.09,123a115,115,0,0,0-7.71,14.19l1.67-2.43q2.93-5.91,6-11.77h0Z"></path>
  <path d="M224,52.56c2.26-5.8-2.79,3.55-9.4,13-8,12.92-15.53,26.95-23.39,39.86L187,113.59c9.65-15.28,26.35-42.29,37-61h0Z"></path>
  <path d="M225.49,40c-6.22,9.41-13.11,22.28-17.33,29.31l21.63-35.37c0.21-.59-0.5.41-1.43,1.78L225.49,40h0Z"></path>
  <path d="M212.46,143.71a314.81,314.81,0,0,1-22.38,23,145,145,0,0,1-12.8,10.69c-4.23,3.09-8.86,5.7-11.91,5.92a11.4,11.4,0,0,0,4.06-.64,27.51,27.51,0,0,0,3.69-1.49,59.24,59.24,0,0,0,11.46-7.63A39.26,39.26,0,0,1,171,183.15a17.39,17.39,0,0,1-3.7,1,9.29,9.29,0,0,1-1.65.08,13.42,13.42,0,0,1-1.81-.21,5.85,5.85,0,0,1-4.61-3.29c0.74,1.56,1.26,1.85,1.2,2a2.18,2.18,0,0,1-1.3-1,10.2,10.2,0,0,1-1.78-4.67,22,22,0,0,1-.27-3.37,19.39,19.39,0,0,1,.29-3.22c1.73-8.09,6.66-18.73,12.32-29.68s12.36-22.45,18.74-33c5.05-9.34,23.75-38.73,20-35.13,7.66-12.91,9.63-14.15,15.65-23.55q1.73-3.21,3.5-6.29l3.68-6.27,5.33-8.74,2.72-4.39,1.39-2.21,0.7-1.11a2.37,2.37,0,0,0,.49-1c-4.53.62-9.29,1.27-14.09,1.81l-3.6.34-1.82.13-1.49.08c-1.49.05-3,.08-4.43,0.06a53.46,53.46,0,0,1-8.58-.76c-1.45-.23-2.87-0.52-4.36-0.84-2.73-.6-5.37-1.23-8.13-1.89l-3,5.44-1.28,2.37-0.27.46c-0.35.61-.68,1.22-1,1.89-0.67,1.36-1.35,3-2.46,5.71a2.27,2.27,0,0,0,.17-1.17s-0.08,0-.15,0c0-.16.15-0.57,0.21-0.83a11.1,11.1,0,0,0,.47-3.07,6.75,6.75,0,0,0-.09-0.86,3.75,3.75,0,0,0-.16-0.6,3.42,3.42,0,0,0-.14-0.34,18.1,18.1,0,0,0-1.22-2.1,18.89,18.89,0,0,0-8.05-6.76,27.4,27.4,0,0,0-9.74-2.21,52.33,52.33,0,0,0-8.63.34,61.6,61.6,0,0,0-12,2.64c-2.46.86-3.12,1.36-1.06,1.17,5.31-.84,13.08-3,22.47-2.52a26,26,0,0,1,7.35,1.5,17.62,17.62,0,0,1,6.85,4.51,16.81,16.81,0,0,1,2.41,3.37c0.15,0.25.36,0.7,0.41,0.8l0.12,0.3a6,6,0,0,1,.21.65,10.73,10.73,0,0,1,.27,3v0.07a28.33,28.33,0,0,1-.75,5.43,22.7,22.7,0,0,0,.13-3.66,12.9,12.9,0,0,0-1.41-5.39A15.85,15.85,0,0,0,177.13,21a22.09,22.09,0,0,0-8-1.64c-2,0-3.26.15-3.32,0.34a18.43,18.43,0,0,1,6.26.83,27.09,27.09,0,0,1,4.71,1.74,16.2,16.2,0,0,1,6.06,4.93,13.67,13.67,0,0,0-5.72-4.58,7.35,7.35,0,0,0-2.44-.71c-0.47.06,1.2,0.7,2.93,1.92A11.63,11.63,0,0,1,181.32,28c0.22,0.51.25,0.75,0,.57s-0.76-.82-1.88-1.8a12.45,12.45,0,0,1,2,2.83,12.78,12.78,0,0,1,.77,1.83,14.68,14.68,0,0,1,.51,2.17c0.41,3.41.23,5.39-4.3,23l0.69-1,0.45-.54,0.9-1.09c0.21-.2.36-0.31,0.55-0.48l0.36-.17c0.38-.07.51,0.27,0.58,0.63a9.92,9.92,0,0,1-.24,2.86c-0.37,2-1,4.11-1.44,5.71l7.81-11.77c6.36-12.4,8.31-16.91,9-19.18a15.92,15.92,0,0,0,.57-2.45,4.78,4.78,0,0,1,.33-1.86c0.29-.59.56-1.25,0.88-1.79l3.81,0.7c1.66,0.28,3.3.54,4.93,0.73a66.07,66.07,0,0,0,9.61.51c1.56,0,3.1-.08,4.62-0.16l3.14-.17c2-.14,3.85-0.33,5.7-0.58a0.39,0.39,0,0,1,.17,0l-0.11.18-0.22.36-0.44.7-0.85,1.39L227.67,32c0.4-1.68-.34-1.18-1.2-0.23A22.73,22.73,0,0,0,225,33.64c-1.06,1.61-2.41,3.74-3.81,6-5.66,9.1-13.12,21.71-18.05,29.92-12.88,21.13-2.71,8.1-16.39,30.41-7.61,10.63,12.55-23.39,2.74-9.24l-5.86,10.53c-3.25,7-5.58,12.79-9.66,21.09-2.74,4.76-6.66,12-7,12.06,4.87-9.62,2.54-7.19-3.22,2.67a86.75,86.75,0,0,0-3.46,8.54c3-4.77,3.85-5.78,3.34-4.48s-2.38,5-4.6,9.77a91.82,91.82,0,0,0-6.24,17c-1.52,6.26-.59,12.8,2.07,16.41a10.87,10.87,0,0,0,7.12,4.61,15.92,15.92,0,0,0,6.77-.14A36.58,36.58,0,0,0,177.6,185c4.45-2.57,7-4.18,9.55-5.71a67.12,67.12,0,0,0,8.94-6.38,155.25,155.25,0,0,0,16.45-16.55c-5.43,4.35-.46-1.16,6.65-9.48s16.16-19.62,20.25-25.68c7.51-9.86,10.54-13.22,16-20l4.28-6.72,1.07-1.69a2.06,2.06,0,0,1,.67-0.61,6.3,6.3,0,0,1,1.53-.49,3.27,3.27,0,0,0-2.84-.13,2.8,2.8,0,0,0-.84.59l-0.94,1-2.07,2.17c-2.93,3.13-6.52,7.19-10.72,11.95-8.4,9.51-19.2,21.88-32.05,35a9.9,9.9,0,0,0-1.08,1.48h0Z"></path>
  <line x1="21" y1="205.83" x2="265.22" y2="205.83" style="fill:none;stroke:#000"></line>
  <path d="M41.83,267.75H40.5V268h4.36v-0.29H43.38v-4.47h0.55c1,0,1.42.15,1.65,0.58a2.6,2.6,0,0,1,.26,1.33h0.22v-4H45.85c0,1.58-.35,1.81-2.47,1.8v-4.35H44.5a10.35,10.35,0,0,1,1.7,0,1.82,1.82,0,0,1,1,.54,3.2,3.2,0,0,1,.84,1.83H48.3l-0.2-2.7H40.5v0.29h1.33v9.09h0Zm11.25-2.83,1,2.83H52.73V268h4.32v-0.29H55.94l-3.45-9.38H52l-3.61,9.38H47.64V268h2.58v-0.29H48.85l1-2.83h3.2Zm-0.1-.29H50l1.49-4,1.49,4h0Zm10.63-6.41H63.38l-0.55.59a3.77,3.77,0,0,0-2-.59,2.89,2.89,0,0,0-2.93,2.94,2.26,2.26,0,0,0,.71,1.7,4.7,4.7,0,0,0,2.25.89,6.09,6.09,0,0,1,1.81.57,1.69,1.69,0,0,1,.77,1.46,2.12,2.12,0,0,1-2.35,2.07,3,3,0,0,1-2.44-1.12,3.16,3.16,0,0,1-.68-1.68H57.72v3h0.33l0.58-.7a3.76,3.76,0,0,0,2.41.84,3.11,3.11,0,0,0,3.16-3.28,2.64,2.64,0,0,0-.9-2.12,4.34,4.34,0,0,0-2.1-.83,9.46,9.46,0,0,1-1.78-.52,1.17,1.17,0,0,1-.75-1.16,1.89,1.89,0,0,1,2.12-1.73,2.45,2.45,0,0,1,2.58,2.22h0.25v-2.55h0Zm9.24,5v4.51H71.37V268h4.36v-0.29H74.4v-9.09h1.33v-0.29H71.37v0.29h1.48V263H68.28v-4.29h1.48v-0.29H65.39v0.29h1.33v9.09H65.39V268h4.36v-0.29H68.28v-4.51h4.57Zm5.23,4.51H76.75V268H81v-0.29H79.63v-9.09H81v-0.29h-4.2v0.29h1.33v9.09h0Zm8.67-9.53a5,5,0,0,0,0,10,4.34,4.34,0,0,0,3.09-1.29,5.41,5.41,0,0,0,1.55-3.63,4.88,4.88,0,0,0-4.64-5h0Zm0,0.33a2.82,2.82,0,0,1,2.07.81c0.54,0.58.71,1.52,0.71,3.9,0,2-.15,3-0.51,3.52a2.68,2.68,0,0,1-2.28,1.06,2.77,2.77,0,0,1-2.09-.81c-0.54-.58-0.71-1.52-0.71-3.83,0-2,.15-3,0.51-3.6a2.63,2.63,0,0,1,2.29-1.06h0Zm7,9.2H92.45V268h3v-0.29H94.12v-8.82L100.7,268H101v-9.38h1.32v-0.29h-3v0.29h1.38v6.54c-0.42-.65-0.64-0.94-1.2-1.72-0.2-.28-0.42-0.57-0.62-0.86l-3.09-4.25H92.45v0.29h1.33v9.09h0Zm22.82,0h-1.36V268H119c2,0,2.84-.13,3.58-0.59a2.24,2.24,0,0,0,1.22-1.94c0-1.46-1.17-2.36-3.28-2.52,1.86-.33,2.83-1.1,2.83-2.28a1.93,1.93,0,0,0-.94-1.62c-0.81-.55-1.65-0.71-3.7-0.71h-3.42v0.29h1.36v9.09h0Zm1.55-9.09h0.45A4.12,4.12,0,0,1,121,259a2,2,0,0,1,.77,1.77c0,1.46-.77,2.06-2.63,2.06h-0.94v-4.19h0Zm0,9.09v-4.6c0.57,0,.71,0,1,0,2.12,0,2.86.61,2.86,2.35a2.1,2.1,0,0,1-.71,1.84,3.33,3.33,0,0,1-2.18.43h-1Zm8.17,0H125V268h7.92l0.3-3H133c-0.49,1.57-.77,2.06-1.36,2.45a2.3,2.3,0,0,1-1.61.28h-2.15v-4.47h0.54c1,0,1.42.15,1.65,0.58a2.5,2.5,0,0,1,.28,1.33h0.22v-4h-0.22c0,1.58-.36,1.81-2.47,1.8v-4.35h1.31a10.09,10.09,0,0,1,1.22,0,2.14,2.14,0,0,1,1.41.68,3.6,3.6,0,0,1,.74,1.65h0.22l-0.12-2.65H125v0.29h1.33v9.09h0Zm13-2.83,1,2.83h-1.39V268h4.32v-0.29h-1.12l-3.45-9.38h-0.46l-3.61,9.38h-0.77V268h2.58v-0.29H135l1-2.83h3.2Zm-0.1-.29h-3l1.49-4,1.49,4h0Zm11.59-6v5.54a4.8,4.8,0,0,1-.31,2.44,2.33,2.33,0,0,1-2.26,1.22,2.5,2.5,0,0,1-2.06-.83c-0.42-.52-0.46-0.78-0.46-2.83v-5.54h1.48v-0.29h-4.36v0.29h1.33v5.54c0,1.93.14,2.49,0.81,3.07a4.54,4.54,0,0,0,3,.91,3.18,3.18,0,0,0,2.63-1c0.48-.64.56-1.1,0.56-3v-5.54h1.36v-0.29h-3v0.29h1.34Zm5.73,9.09H155V268h4.55v-0.29h-1.49v-9.09h0.45c1.13,0,1.45.1,1.91,0.61a4.29,4.29,0,0,1,1,2.16h0.25l-0.12-3.06H153l-0.12,3.06h0.25a4.39,4.39,0,0,1,1-2.16c0.43-.51.75-0.61,1.84-0.61h0.54v9.09h0Zm9.71,0h-1.49V268h4.52v-0.29h-1.48v-4.29a0.57,0.57,0,0,0,.1-0.16,2.25,2.25,0,0,0,.14-0.25l0.06-.09,0.12-.19,0.22-.3,2.26-3.81h1.12v-0.29h-3.12v0.29h1.6l-2.64,4.22a3.38,3.38,0,0,0-.2-0.41l-2.35-3.81h1.36v-0.29H162.3v0.29h0.81l3.1,4.8v4.29h0Zm25-2.45h-0.23c-0.68,1.71-1.74,2.55-3.2,2.55a2.78,2.78,0,0,1-2.13-.84c-0.43-.52-0.57-1.35-0.57-3.41a9.62,9.62,0,0,1,.48-3.89,2.57,2.57,0,0,1,2.35-1.16,3,3,0,0,1,3.07,2.36h0.23v-2.55h-0.23l-0.55.68a4.38,4.38,0,0,0-2.48-.83,4.74,4.74,0,0,0-2.7.93,5,5,0,0,0-2,4.08,4.8,4.8,0,0,0,4.55,5,4.59,4.59,0,0,0,2.63-.85l0.55,0.71h0.23V265.3h0Zm9-6.64v5.54a4.8,4.8,0,0,1-.31,2.44,2.33,2.33,0,0,1-2.26,1.22,2.5,2.5,0,0,1-2.06-.83c-0.42-.52-0.46-0.78-0.46-2.83v-5.54h1.48v-0.29h-4.36v0.29h1.33v5.54c0,1.93.14,2.49,0.81,3.07a4.54,4.54,0,0,0,3,.91,3.18,3.18,0,0,0,2.63-1c0.48-.64.56-1.1,0.56-3v-5.54h1.36v-0.29h-3v0.29h1.34Zm3.81,9.09h-1.33V268h7.94l0.28-3h-0.22a4.7,4.7,0,0,1-1,2.16c-0.43.44-.84,0.54-2.12,0.54h-2v-9.09H207v-0.29h-4.36v0.29h1.33v9.09h0Zm10.24,0H212.7V268h4.55v-0.29h-1.49v-9.09h0.45c1.13,0,1.45.1,1.91,0.61a4.29,4.29,0,0,1,1,2.16h0.25l-0.12-3.06H210.7l-0.12,3.06h0.25a4.39,4.39,0,0,1,1-2.16c0.43-.51.75-0.61,1.84-0.61h0.54v9.09h0Zm13.62-9.09v5.54a4.8,4.8,0,0,1-.3,2.44,2.33,2.33,0,0,1-2.26,1.22,2.5,2.5,0,0,1-2.06-.83c-0.42-.52-0.47-0.78-0.47-2.83v-5.54h1.48v-0.29h-4.36v0.29h1.33v5.54c0,1.93.14,2.49,0.81,3.07a4.54,4.54,0,0,0,3,.91,3.18,3.18,0,0,0,2.63-1c0.48-.64.56-1.1,0.56-3v-5.54h1.36v-0.29h-3v0.29h1.33Zm3.81,9.09h-1.33V268h4.36v-0.29h-1.48V263h0.51a2.65,2.65,0,0,1,2,.51,2.18,2.18,0,0,1,.46,1.67,3.46,3.46,0,0,0,.33,1.86,2.22,2.22,0,0,0,1.94,1,3.26,3.26,0,0,0,1.18-.23l-0.12-.26a1.65,1.65,0,0,1-.62.16c-0.48,0-.72-0.38-0.72-1.1,0-.06,0-0.22,0-0.42v-0.31a2.81,2.81,0,0,0-.43-1.68,3.41,3.41,0,0,0-2.49-1.34c2-.12,3.25-1,3.25-2.33a1.86,1.86,0,0,0-1-1.68c-0.75-.45-1.36-0.54-3.55-0.54h-3.62v0.29h1.33v9.09h0Zm1.55-5v-4.06h0.71a3.66,3.66,0,0,1,2.19.38,1.89,1.89,0,0,1,.78,1.65,1.87,1.87,0,0,1-.78,1.67,4.36,4.36,0,0,1-2.26.36h-0.64Zm8.61,5h-1.33V268h7.92l0.3-3h-0.22c-0.49,1.57-.77,2.06-1.36,2.45a2.3,2.3,0,0,1-1.61.28h-2.15v-4.47h0.54c1,0,1.42.15,1.65,0.58a2.5,2.5,0,0,1,.27,1.33H246v-4h-0.22c0,1.58-.36,1.81-2.46,1.8v-4.35h1.3a10.09,10.09,0,0,1,1.22,0,2.14,2.14,0,0,1,1.41.68A3.6,3.6,0,0,1,248,261h0.22l-0.12-2.65h-7.65v0.29h1.33v9.09h0Z"></path>
</svg>
