<svg version="1.1" id="Layer_1" xmlns="http://www.w3.org/2000/svg" xmlns:xlink="http://www.w3.org/1999/xlink" x="0px" y="0px"
	 width="100%" viewBox="0 0 595 596" enable-background="new 0 0 595 596" xml:space="preserve">
<path fill="#FFFFFF" opacity="1.000000" stroke="none" 
	d="
M293.000000,597.000000 
	C195.333328,597.000000 98.166664,597.000000 1.000000,597.000000 
	C1.000000,398.333344 1.000000,199.666672 1.000000,1.000000 
	C199.333328,1.000000 397.666656,1.000000 596.000000,1.000000 
	C596.000000,199.666672 596.000000,398.333344 596.000000,597.000000 
	C495.166656,597.000000 394.333344,597.000000 293.000000,597.000000 
M431.993713,351.385773 
	C431.727997,358.611298 433.674866,365.055573 438.194244,370.831696 
	C439.905792,373.019226 440.593842,375.981842 442.132538,378.340546 
	C442.986633,379.649780 445.401672,381.566223 445.802246,381.292328 
	C449.479279,378.777344 453.374390,379.934631 457.260529,379.913208 
	C469.692200,379.844727 477.895996,372.970734 483.880981,362.813477 
	C488.986755,363.027557 490.407104,362.354523 491.580017,357.352478 
	C492.340912,354.107635 492.579254,350.446991 491.896301,347.216949 
	C490.400848,340.143829 486.133240,334.491730 480.342834,330.336456 
	C477.123535,328.026184 476.472809,326.069122 478.176636,322.503448 
	C482.423187,313.616516 480.215149,310.531128 470.060944,311.034119 
	C470.060944,313.489624 469.970459,315.966675 470.082428,318.434601 
	C470.244690,322.011627 469.431580,324.091339 465.273865,322.270935 
	C464.079987,321.748199 462.716644,321.409882 461.417816,321.364441 
	C455.781830,321.167358 449.923645,319.522125 444.091980,323.820282 
	C435.728973,326.011505 427.251404,327.849670 419.041870,330.513885 
	C413.247009,332.394440 407.711945,327.890686 407.374512,322.811066 
	C407.058136,318.049164 408.348358,313.076965 409.552979,308.355835 
	C410.293823,305.452423 412.447662,304.895477 415.804260,305.831604 
	C429.509949,309.653961 442.834290,308.457947 455.327759,301.209991 
	C458.730225,299.236115 462.151459,297.253387 465.339447,294.962189 
	C468.816528,292.463226 470.613342,289.250488 469.204224,284.620300 
	C461.509613,259.336121 446.839386,240.283920 421.673126,230.222061 
	C419.340668,229.289490 417.256866,226.941223 415.805176,224.754120 
	C412.039948,219.081299 409.023071,212.892380 405.046692,207.386703 
	C402.846741,204.340637 399.319092,202.253479 395.602295,199.056656 
	C394.912048,203.338196 394.806244,206.194504 393.960358,208.811600 
	C391.785675,215.539886 390.999451,223.779572 386.557648,228.493698 
	C376.991028,238.646851 369.069305,249.822495 361.009949,261.037628 
	C358.448395,264.602142 355.225342,268.356049 351.421661,270.236511 
	C340.712524,275.530975 329.787720,280.609802 318.500946,284.464905 
	C300.563263,290.591583 285.826416,300.666962 274.577209,315.888794 
	C273.648071,317.146118 272.639465,318.344727 271.667786,319.570618 
	C271.311310,319.372498 270.954803,319.174347 270.598297,318.976227 
	C271.091675,317.469818 271.469116,315.913055 272.097687,314.465363 
	C275.609222,306.377655 279.117554,298.287445 282.744690,290.251221 
	C294.827759,263.479950 302.850952,235.920105 298.975464,206.095551 
	C292.967377,159.858826 256.202057,130.018295 211.356262,131.380386 
	C179.204529,132.356918 153.802078,147.359360 133.995499,172.191010 
	C123.595856,185.229141 115.585114,199.435364 113.498848,216.452332 
	C110.789253,238.553467 124.135803,258.088776 145.629486,262.538544 
	C158.752411,265.255341 171.011093,262.153839 182.761795,256.190399 
	C189.724319,252.656967 196.687622,249.042206 203.930756,246.170761 
	C209.720062,243.875671 211.937576,245.760040 211.057938,251.866272 
	C210.303421,257.103973 208.926804,262.289948 207.404633,267.372833 
	C199.669128,293.203430 191.791565,318.990845 189.618118,346.076233 
	C188.105469,364.926788 189.266571,383.537964 197.606216,400.782654 
	C213.333755,433.304016 239.707687,451.981598 275.110901,457.917511 
	C292.787567,460.881256 310.521576,461.915985 327.969330,456.088226 
	C329.071564,455.720093 330.403748,456.040375 331.862671,456.040375 
	C331.670319,457.471283 331.700775,458.329590 331.429962,459.079071 
	C329.938812,463.205597 331.426819,465.429321 335.678314,466.038300 
	C337.487274,466.297394 339.293304,466.978729 341.081512,466.916595 
	C353.354553,466.490295 365.653778,466.293823 377.882538,465.277222 
	C388.260010,464.414459 398.597961,462.797058 408.858673,460.979004 
	C411.934418,460.434021 414.953156,458.437744 417.528320,456.486481 
	C420.655579,454.116852 420.705841,451.076141 417.333923,448.642303 
	C411.768280,444.624969 405.746704,441.992065 398.674408,443.775269 
	C392.870178,445.238708 387.184753,447.352020 381.305115,448.285522 
	C375.820435,449.156311 370.055237,449.577393 364.585510,448.868835 
	C358.658630,448.101044 357.112061,444.699066 359.371124,439.195679 
	C361.831512,433.201752 364.520203,427.268890 367.570984,421.555939 
	C377.859589,402.289429 375.099274,384.054108 363.701874,366.362823 
	C363.059387,365.365509 362.534729,364.292267 361.955200,363.254395 
	C368.406464,365.822723 374.237549,368.921570 379.909271,372.288757 
	C385.815399,375.795135 391.469482,375.782532 397.288422,372.102478 
	C408.823242,364.807526 420.432800,357.630798 431.993713,351.385773 
z"/>
<path fill="#EDAB1F" opacity="1.000000" stroke="none" 
	d="
M432.011475,350.405212 
	C420.432800,357.630798 408.823242,364.807526 397.288422,372.102478 
	C391.469482,375.782532 385.815399,375.795135 379.909271,372.288757 
	C374.237549,368.921570 368.406464,365.822723 361.955200,363.254395 
	C362.534729,364.292267 363.059387,365.365509 363.701874,366.362823 
	C375.099274,384.054108 377.859589,402.289429 367.570984,421.555939 
	C364.520203,427.268890 361.831512,433.201752 359.371124,439.195679 
	C357.112061,444.699066 358.658630,448.101044 364.585510,448.868835 
	C370.055237,449.577393 375.820435,449.156311 381.305115,448.285522 
	C387.184753,447.352020 392.870178,445.238708 398.674408,443.775269 
	C405.746704,441.992065 411.768280,444.624969 417.333923,448.642303 
	C420.705841,451.076141 420.655579,454.116852 417.528320,456.486481 
	C414.953156,458.437744 411.934418,460.434021 408.858673,460.979004 
	C398.597961,462.797058 388.260010,464.414459 377.882538,465.277222 
	C365.653778,466.293823 353.354553,466.490295 341.081512,466.916595 
	C339.293304,466.978729 337.487274,466.297394 335.678314,466.038300 
	C331.426819,465.429321 329.938812,463.205597 331.429962,459.079071 
	C331.700775,458.329590 331.670319,457.471283 331.862671,456.040375 
	C330.403748,456.040375 329.071564,455.720093 327.969330,456.088226 
	C310.521576,461.915985 292.787567,460.881256 275.110901,457.917511 
	C239.707687,451.981598 213.333755,433.304016 197.606216,400.782654 
	C189.266571,383.537964 188.105469,364.926788 189.618118,346.076233 
	C191.791565,318.990845 199.669128,293.203430 207.404633,267.372833 
	C208.926804,262.289948 210.303421,257.103973 211.057938,251.866272 
	C211.937576,245.760040 209.720062,243.875671 203.930756,246.170761 
	C196.687622,249.042206 189.724319,252.656967 182.761795,256.190399 
	C171.011093,262.153839 158.752411,265.255341 145.629486,262.538544 
	C124.135803,258.088776 110.789253,238.553467 113.498848,216.452332 
	C115.585114,199.435364 123.595856,185.229141 133.995499,172.191010 
	C153.802078,147.359360 179.204529,132.356918 211.356262,131.380386 
	C256.202057,130.018295 292.967377,159.858826 298.975464,206.095551 
	C302.850952,235.920105 294.827759,263.479950 282.744690,290.251221 
	C279.117554,298.287445 275.609222,306.377655 272.097687,314.465363 
	C271.469116,315.913055 271.091675,317.469818 270.598297,318.976227 
	C270.954803,319.174347 271.311310,319.372498 271.667786,319.570618 
	C272.639465,318.344727 273.648071,317.146118 274.577209,315.888794 
	C285.826416,300.666962 300.563263,290.591583 318.500946,284.464905 
	C329.787720,280.609802 340.712524,275.530975 351.421661,270.236511 
	C355.225342,268.356049 358.448395,264.602142 361.009949,261.037628 
	C369.069305,249.822495 376.991028,238.646851 386.557648,228.493698 
	C390.999451,223.779572 391.785675,215.539886 393.960358,208.811600 
	C394.806244,206.194504 394.912048,203.338196 395.602295,199.056656 
	C399.319092,202.253479 402.846741,204.340637 405.046692,207.386703 
	C409.023071,212.892380 412.039948,219.081299 415.805176,224.754120 
	C417.256866,226.941223 419.340668,229.289490 421.673126,230.222061 
	C446.839386,240.283920 461.509613,259.336121 469.204224,284.620300 
	C470.613342,289.250488 468.816528,292.463226 465.339447,294.962189 
	C462.151459,297.253387 458.730225,299.236115 455.327759,301.209991 
	C442.834290,308.457947 429.509949,309.653961 415.804260,305.831604 
	C412.447662,304.895477 410.293823,305.452423 409.552979,308.355835 
	C408.348358,313.076965 407.058136,318.049164 407.374512,322.811066 
	C407.711945,327.890686 413.247009,332.394440 419.041870,330.513885 
	C427.251404,327.849670 435.728973,326.011505 444.921326,323.802521 
	C458.139709,323.827850 466.863281,331.313629 465.891785,341.725189 
	C465.598969,344.863190 463.241425,347.808533 461.829712,350.842102 
	C459.508606,349.374176 456.870636,348.236908 454.927368,346.374725 
	C449.629272,341.297607 446.787415,340.615295 440.425018,344.306549 
	C437.444366,346.035797 434.805328,348.353973 432.011475,350.405212 
M427.836060,268.950500 
	C430.201294,269.440308 433.185150,271.011139 434.755707,270.112366 
	C436.290497,269.234009 437.527405,265.314728 436.787659,263.689697 
	C436.045013,262.058319 432.445190,260.467224 430.553314,260.891418 
	C427.014709,261.684753 425.889679,264.783203 427.836060,268.950500 
M269.208160,321.173737 
	C269.777954,321.160980 270.347748,321.148224 270.917572,321.135468 
	C270.875488,320.711060 270.833405,320.286682 270.791321,319.862274 
	C270.279816,320.035828 269.768280,320.209381 269.208160,321.173737 
z"/>
<path fill="#FAE2B7" opacity="1.000000" stroke="none" 
	d="
M432.002594,350.895508 
	C434.805328,348.353973 437.444366,346.035797 440.425018,344.306549 
	C446.787415,340.615295 449.629272,341.297607 454.927368,346.374725 
	C456.870636,348.236908 459.508606,349.374176 461.829712,350.842102 
	C463.241425,347.808533 465.598969,344.863190 465.891785,341.725189 
	C466.863281,331.313629 458.139709,323.827850 445.303589,323.688904 
	C449.923645,319.522125 455.781830,321.167358 461.417816,321.364441 
	C462.716644,321.409882 464.079987,321.748199 465.273865,322.270935 
	C469.431580,324.091339 470.244690,322.011627 470.082428,318.434601 
	C469.970459,315.966675 470.060944,313.489624 470.060944,311.034119 
	C480.215149,310.531128 482.423187,313.616516 478.176636,322.503448 
	C476.472809,326.069122 477.123535,328.026184 480.342834,330.336456 
	C486.133240,334.491730 490.400848,340.143829 491.896301,347.216949 
	C492.579254,350.446991 492.340912,354.107635 491.580017,357.352478 
	C490.407104,362.354523 488.986755,363.027557 483.880981,362.813477 
	C477.895996,372.970734 469.692200,379.844727 457.260529,379.913208 
	C453.374390,379.934631 449.479279,378.777344 445.802246,381.292328 
	C445.401672,381.566223 442.986633,379.649780 442.132538,378.340546 
	C440.593842,375.981842 439.905792,373.019226 438.194244,370.831696 
	C433.674866,365.055573 431.727997,358.611298 432.002594,350.895508 
z"/>
<path fill="#FEFAF2" opacity="1.000000" stroke="none" 
	d="
M427.616638,268.665405 
	C425.889679,264.783203 427.014709,261.684753 430.553314,260.891418 
	C432.445190,260.467224 436.045013,262.058319 436.787659,263.689697 
	C437.527405,265.314728 436.290497,269.234009 434.755707,270.112366 
	C433.185150,271.011139 430.201294,269.440308 427.616638,268.665405 
z"/>
<path fill="#FFFFFF" opacity="1.000000" stroke="none" 
	d="
M269.232483,320.778320 
	C269.768280,320.209381 270.279816,320.035828 270.791321,319.862274 
	C270.833405,320.286682 270.875488,320.711060 270.917542,321.135468 
	C270.347748,321.148224 269.777954,321.160980 269.232483,320.778320 
z"/>
</svg>